<?xml version="1.0" encoding="UTF-8" standalone="no"?>
<!-- Created with Inkscape (http://www.inkscape.org/) -->

<svg
   xmlns:dc="http://purl.org/dc/elements/1.1/"
   xmlns:cc="http://creativecommons.org/ns#"
   xmlns:rdf="http://www.w3.org/1999/02/22-rdf-syntax-ns#"
   xmlns:svg="http://www.w3.org/2000/svg"
   xmlns="http://www.w3.org/2000/svg"
   xmlns:sodipodi="http://sodipodi.sourceforge.net/DTD/sodipodi-0.dtd"
   xmlns:inkscape="http://www.inkscape.org/namespaces/inkscape"
   width="600"
   height="200"
   viewBox="0 0 600.00001 200"
   id="svg2"
   version="1.1"
   inkscape:version="0.91 r13725"
   sodipodi:docname="CeroFilas.svg"
   inkscape:export-filename="/home/signo/servidor/proyectos/0filas/img/CeroFilas.png"
   inkscape:export-xdpi="90"
   inkscape:export-ydpi="90">
  <defs
     id="defs4" />
  <sodipodi:namedview
     id="base"
     pagecolor="#ffffff"
     bordercolor="#666666"
     borderopacity="1.0"
     inkscape:pageopacity="0.0"
     inkscape:pageshadow="2"
     inkscape:zoom="0.90823938"
     inkscape:cx="350.89493"
     inkscape:cy="50.973637"
     inkscape:document-units="px"
     inkscape:current-layer="layer1"
     showgrid="false"
     units="px"
     inkscape:window-width="1366"
     inkscape:window-height="768"
     inkscape:window-x="0"
     inkscape:window-y="0"
     inkscape:window-maximized="1" />
  <metadata
     id="metadata7">
    <rdf:RDF>
      <cc:Work
         rdf:about="">
        <dc:format>image/svg+xml</dc:format>
        <dc:type
           rdf:resource="http://purl.org/dc/dcmitype/StillImage" />
        <dc:title></dc:title>
      </cc:Work>
    </rdf:RDF>
  </metadata>
  <g
     inkscape:label="Capa 1"
     inkscape:groupmode="layer"
     id="layer1"
     transform="translate(0,-852.36216)">
    <path
       style="opacity:1;fill:#00004b;fill-opacity:1;stroke:none;stroke-width:5;stroke-miterlimit:4;stroke-dasharray:none;stroke-dashoffset:0;stroke-opacity:1"
       d="M 0.33416812,881.2753 C 219.75032,938.46832 366.76146,852.85768 599.99673,902.29507 l 0.14023,119.34983 C 417.65965,958.3429 193.22035,1050.7888 0.08511867,1002.1822 Z"
       id="rect4228"
       inkscape:connector-curvature="0"
       sodipodi:nodetypes="ccccc" />
    <g
       id="g4215"
       transform="matrix(0.99585301,0.00523463,-0.00523463,0.99585301,3.8639376,581.36381)">
      <g
         id="text4140"
         style="font-style:normal;font-variant:normal;font-weight:normal;font-stretch:normal;font-size:52.67110062px;line-height:125%;font-family:Bitsumishi;-inkscape-font-specification:Bitsumishi;letter-spacing:0px;word-spacing:0px;fill:#ffffff;fill-opacity:1;stroke:none;stroke-width:1.29166973px;stroke-linecap:butt;stroke-linejoin:miter;stroke-opacity:1"
         transform="scale(0.85067066,1.1755431)">
        <path
           id="path4202"
           style="font-style:normal;font-variant:normal;font-weight:normal;font-stretch:normal;font-family:Bitsumishi;-inkscape-font-specification:Bitsumishi;fill:#ffffff;stroke:none;stroke-width:1.29166973px"
           d="m 405.68755,315.74963 -22.54323,0 0,4.05568 21.12111,0 0,6.32053 -21.12111,0 0,10.42888 -6.3732,0 0,-27.12562 28.91643,0 0,6.32053 z"
           inkscape:connector-curvature="0" />
        <path
           id="path4204"
           style="font-style:normal;font-variant:normal;font-weight:normal;font-stretch:normal;font-family:Bitsumishi;-inkscape-font-specification:Bitsumishi;fill:#ffffff;stroke:none;stroke-width:1.29166973px"
           d="m 413.95362,336.55472 -6.32053,0 0,-27.12562 6.32053,0 0,27.12562 z"
           inkscape:connector-curvature="0" />
        <path
           id="path4206"
           style="font-style:normal;font-variant:normal;font-weight:normal;font-stretch:normal;font-family:Bitsumishi;-inkscape-font-specification:Bitsumishi;fill:#ffffff;stroke:none;stroke-width:1.29166973px"
           d="m 443.70868,336.55472 -27.12562,0 0,-27.12562 6.32053,0 0,20.80509 20.80509,0 0,6.32053 z"
           inkscape:connector-curvature="0" />
        <path
           id="path4208"
           style="font-style:normal;font-variant:normal;font-weight:normal;font-stretch:normal;font-family:Bitsumishi;-inkscape-font-specification:Bitsumishi;fill:#ffffff;stroke:none;stroke-width:1.29166973px"
           d="m 479.5489,336.55472 -6.32054,0 0,-8.63806 -16.64406,0 0,-6.32053 16.64406,0 0,-3.79232 q 0,-2.05418 -1.36945,-2.05418 l -17.90817,0 q -1.31678,0 -1.31678,2.05418 l 0,18.75091 -6.32053,0 0,-18.75091 q 0,-3.42363 2.10684,-5.89917 2.15952,-2.47554 5.53047,-2.47554 l 17.90817,0 q 3.42363,0 5.53047,2.47554 2.15952,2.47554 2.15952,5.89917 l 0,18.75091 z"
           inkscape:connector-curvature="0" />
        <path
           id="path4210"
           style="font-style:normal;font-variant:normal;font-weight:normal;font-stretch:normal;font-family:Bitsumishi;-inkscape-font-specification:Bitsumishi;fill:#ffffff;stroke:none;stroke-width:1.29166973px"
           d="m 514.55625,328.18001 q 0,3.42362 -2.05417,5.8465 -2.21219,2.52821 -5.58314,2.52821 l -23.38597,0 0,-6.32053 23.38597,0 q 1.31678,0 1.31678,-2.05418 0,-2.05417 -1.31678,-2.05417 l -17.01277,0 q -3.37095,0 -5.58313,-2.52821 -2.10685,-2.3702 -2.10685,-5.79382 0,-3.42363 2.15952,-5.89917 2.15951,-2.47554 5.53046,-2.47554 l 23.38597,0 0,6.32053 -23.38597,0 q -1.31677,0 -1.31677,2.05418 0,2.0015 1.31677,2.0015 l 17.01277,0 q 3.37095,0 5.58314,2.52821 2.05417,2.42287 2.05417,5.84649 z"
           inkscape:connector-curvature="0" />
      </g>
      <g
         id="text4188"
         style="font-style:normal;font-weight:normal;font-size:188.31639099px;line-height:125%;font-family:sans-serif;letter-spacing:0px;word-spacing:0px;fill:#ffffff;fill-opacity:1;stroke:none;stroke-width:1px;stroke-linecap:butt;stroke-linejoin:miter;stroke-opacity:1">
        <path
           id="path4193"
           style="font-style:normal;font-variant:normal;font-weight:normal;font-stretch:normal;fill:#ffffff"
           d="m 59.464155,386.09437 21.976376,0 0,0 q -13.884656,0 -7.172206,0 6.8044,0 21.056862,0 14.344413,0 29.608343,0 15.35587,0 18.66612,0 6.52855,-0.092 6.52855,5.60903 0,3.49416 -2.39074,4.59757 -2.29878,1.10342 -4.96537,1.10342 l -61.331559,0 0,0 -21.976376,0 -2.850492,0 -17.102954,0 q -7.44806,0 -11.769774,-1.19537 -4.873422,-1.28732 -7.815866,-4.04586 -8.183671,-6.8044 -8.183671,-21.05686 0,-11.58587 6.804401,-19.30979 3.494151,-3.95391 8.275622,-5.70098 4.781471,-1.56318 12.689288,-1.56318 l 68.044011,0 0.27585,0 0,0 q 5.42513,0.18391 5.42513,5.70099 0,5.60903 -5.70098,5.60903 -0.27586,0 -0.45976,0 -0.1839,0 -0.3678,0 l -65.561326,0 q -4.597568,0 -7.172206,0.55171 -2.390736,0.55171 -4.68952,2.11488 -5.333179,3.86196 -5.333179,12.41344 0,7.44806 3.218298,11.21806 3.4022,3.95391 12.13758,3.95391 l 20.137348,0 0,0 z"
           inkscape:connector-curvature="0" />
        <path
           id="path4195"
           style="font-style:normal;font-variant:normal;font-weight:normal;font-stretch:normal;fill:#ffffff"
           d="m 204.74731,386.09437 21.97638,0 0,0 q -13.88466,0 -7.17221,0 6.8044,0 21.05686,0 14.34442,0 29.60834,0 15.35588,0 18.66613,0 6.52855,-0.092 6.52855,5.60903 0,3.49416 -2.39074,4.59757 -2.29878,1.10342 -4.96537,1.10342 l -61.33156,0 0,0 -21.97638,0 -2.94244,0 -17.011,0 q -7.44806,0 -11.76978,-1.19537 -4.87342,-1.28732 -7.81586,-4.04586 -8.18367,-6.8044 -8.18367,-21.05686 0,-11.58587 6.8044,-19.30979 3.49415,-3.95391 8.27562,-5.70098 4.78147,-1.56318 12.68929,-1.56318 l 14.71221,0 26.482,0 26.8498,0 0.27585,0 0,0 22.62003,0 q 10.20661,0 14.98808,5.14928 4.78147,5.05733 4.50561,11.12612 -0.1839,5.97683 -5.14927,11.03416 -4.96538,4.96537 -14.06856,4.78147 l -76.04378,0.0919 -0.27585,0 0,0 q -5.42513,-0.27585 -5.42513,-5.70098 0,-5.60904 5.70098,-5.60904 0.1839,0 0.36781,0 0.1839,0 0.45975,0 l 77.88281,0.092 q 4.96537,-0.55171 4.68952,-5.05733 -0.27586,-4.50562 -4.78147,-4.59757 l -24.91882,0 q -0.27586,0 -0.45976,0 -0.1839,0 -0.3678,0 -0.27586,0 -0.45976,0 -0.1839,0 -0.36781,0 l -3.95391,0 0,0 -22.06832,0 0,0 q 14.43636,0 12.22953,0 -2.20683,0 -10.85026,0 -8.64343,0 -18.57418,0 -9.93074,0 -10.85026,0 l -11.49392,0 q -4.59757,0 -7.1722,0.55171 -2.39074,0.55171 -4.68952,2.11488 -5.33318,3.86196 -5.33318,12.41344 0,7.44806 3.21829,11.21806 3.4022,3.95391 12.13758,3.95391 l 20.13735,0 0,0 z"
           inkscape:connector-curvature="0" />
        <path
           id="path4197"
           style="font-style:normal;font-variant:normal;font-weight:normal;font-stretch:normal;fill:#ffffff"
           d="m 435.63718,355.84237 -63.99815,0 0,0 q 14.43637,0 9.01124,0 -5.33318,0 -17.74662,0 -12.41343,0 -25.56248,0 -13.05709,0 -13.9766,0 -4.78147,0 -6.89636,2.11488 -1.28731,1.37927 -1.47122,2.75854 -0.3678,1.28732 -0.3678,5.24123 l 0,31.44737 -11.95368,0 0,-33.6542 q 0,-9.28709 4.78147,-14.34441 2.48269,-2.75854 6.34465,-3.86196 3.86195,-1.01147 11.12611,-1.01147 l 46.71129,0 0,0 q 10.75831,0 31.90713,0 21.14881,0 31.99907,0 0,0 0,0 0,0 0,0 5.70098,0 5.70098,5.60904 0,5.60903 -5.60903,5.70098 0,0 0,0 0,0 0,0 z"
           inkscape:connector-curvature="0" />
        <path
           id="path4199"
           style="font-style:normal;font-variant:normal;font-weight:normal;font-stretch:normal;fill:#ffffff"
           d="m 492.37118,355.84237 -16.45929,0 q -8.73538,0 -12.13758,3.86196 -3.2183,3.86196 -3.2183,11.31002 0,8.55147 5.33318,12.32148 2.20683,1.56317 4.68952,2.20683 2.57464,0.55171 7.17221,0.55171 l 14.62026,0 50.38935,0 14.71222,0 q 4.59757,0 7.08025,-0.55171 2.48269,-0.64366 4.78147,-2.20683 5.24123,-3.86196 5.24123,-12.32148 0,-7.63197 -3.2183,-11.31002 -3.49415,-3.86196 -12.13758,-3.86196 l -16.45929,0 0,0 -50.38935,0 0,0 z m 50.38935,41.56202 -50.38935,0 -16.27539,0 q -7.99977,0 -12.68929,-1.65513 -4.68952,-1.56317 -8.27562,-5.70098 -6.8044,-7.63196 -6.8044,-19.21784 0,-14.16051 8.18367,-21.14881 3.2183,-2.85049 7.81587,-3.95391 4.32171,-1.19537 11.76977,-1.19537 l 16.27539,0 0,0 24.73492,0 0,0 0.91951,0 0,0 24.73492,0 0,0 16.27539,0 q 7.44806,0 11.86173,1.19537 4.32171,1.10342 7.81586,3.95391 8.18367,7.08026 8.18367,21.14881 0,11.58588 -6.8044,19.21784 -3.86195,4.22976 -8.36757,5.70098 -4.68952,1.65513 -12.68929,1.65513 l -16.27539,0 z"
           inkscape:connector-curvature="0" />
      </g>
    </g>
  </g>
</svg>
